<mxfile host="app.diagrams.net" modified="2024-02-28T22:16:15.196Z" agent="Mozilla/5.0 (X11; Linux x86_64; rv:109.0) Gecko/20100101 Firefox/115.0" etag="eSNVru9nwzQ9i8Sy_Zsu" version="23.1.7" type="device">
  <diagram name="Page-1" id="WWrtLM3kdnhNsB_Eunjz">
    <mxGraphModel dx="1274" dy="723" grid="1" gridSize="10" guides="1" tooltips="1" connect="1" arrows="1" fold="1" page="1" pageScale="1" pageWidth="850" pageHeight="1100" math="0" shadow="0">
      <root>
        <mxCell id="0" />
        <mxCell id="1" parent="0" />
        <mxCell id="8z0fcw80SUr7YGMnGmI_-52" value="" style="rounded=0;whiteSpace=wrap;html=1;" parent="1" vertex="1">
          <mxGeometry x="752.5" y="280" width="120" height="60" as="geometry" />
        </mxCell>
        <mxCell id="8z0fcw80SUr7YGMnGmI_-51" value="" style="rounded=0;whiteSpace=wrap;html=1;" parent="1" vertex="1">
          <mxGeometry x="745" y="290" width="120" height="60" as="geometry" />
        </mxCell>
        <mxCell id="8z0fcw80SUr7YGMnGmI_-50" value="" style="rounded=0;whiteSpace=wrap;html=1;" parent="1" vertex="1">
          <mxGeometry x="690" y="390" width="370" height="200" as="geometry" />
        </mxCell>
        <mxCell id="8z0fcw80SUr7YGMnGmI_-49" value="" style="rounded=0;whiteSpace=wrap;html=1;" parent="1" vertex="1">
          <mxGeometry x="680" y="400" width="370" height="200" as="geometry" />
        </mxCell>
        <mxCell id="8z0fcw80SUr7YGMnGmI_-24" value="" style="rounded=0;whiteSpace=wrap;html=1;" parent="1" vertex="1">
          <mxGeometry x="215" y="210" width="332.5" height="180" as="geometry" />
        </mxCell>
        <mxCell id="8z0fcw80SUr7YGMnGmI_-23" value="" style="rounded=0;whiteSpace=wrap;html=1;" parent="1" vertex="1">
          <mxGeometry x="197.5" y="220" width="332.5" height="180" as="geometry" />
        </mxCell>
        <mxCell id="8z0fcw80SUr7YGMnGmI_-2" value="" style="rounded=0;whiteSpace=wrap;html=1;" parent="1" vertex="1">
          <mxGeometry x="160" y="540" width="360" height="210" as="geometry" />
        </mxCell>
        <mxCell id="8z0fcw80SUr7YGMnGmI_-3" value="&lt;font style=&quot;font-size: 22px;&quot;&gt;Cloud Server&lt;/font&gt;" style="text;html=1;strokeColor=none;fillColor=none;align=center;verticalAlign=middle;whiteSpace=wrap;rounded=0;fontStyle=1" parent="1" vertex="1">
          <mxGeometry x="260" y="605" width="150" height="70" as="geometry" />
        </mxCell>
        <mxCell id="8z0fcw80SUr7YGMnGmI_-4" value="AI - CNN architecture" style="rounded=0;whiteSpace=wrap;html=1;" parent="1" vertex="1">
          <mxGeometry x="170" y="680" width="120" height="60" as="geometry" />
        </mxCell>
        <mxCell id="8z0fcw80SUr7YGMnGmI_-5" value="Network forwarder" style="rounded=0;whiteSpace=wrap;html=1;" parent="1" vertex="1">
          <mxGeometry x="300" y="680" width="120" height="60" as="geometry" />
        </mxCell>
        <mxCell id="8z0fcw80SUr7YGMnGmI_-6" value="" style="rounded=0;whiteSpace=wrap;html=1;" parent="1" vertex="1">
          <mxGeometry x="180" y="230" width="310" height="180" as="geometry" />
        </mxCell>
        <mxCell id="8z0fcw80SUr7YGMnGmI_-7" value="&lt;font style=&quot;font-size: 15px;&quot;&gt;Capturing device&lt;/font&gt;" style="text;html=1;strokeColor=none;fillColor=none;align=center;verticalAlign=middle;whiteSpace=wrap;rounded=0;fontStyle=1" parent="1" vertex="1">
          <mxGeometry x="185" y="240" width="130" height="30" as="geometry" />
        </mxCell>
        <mxCell id="8z0fcw80SUr7YGMnGmI_-8" value="Image analyser" style="rounded=0;whiteSpace=wrap;html=1;fillColor=#ffe6cc;strokeColor=#d79b00;" parent="1" vertex="1">
          <mxGeometry x="190" y="280" width="120" height="60" as="geometry" />
        </mxCell>
        <mxCell id="8z0fcw80SUr7YGMnGmI_-9" value="OTA updater" style="rounded=0;whiteSpace=wrap;html=1;" parent="1" vertex="1">
          <mxGeometry x="320" y="280" width="60" height="60" as="geometry" />
        </mxCell>
        <mxCell id="8z0fcw80SUr7YGMnGmI_-10" value="" style="rounded=0;whiteSpace=wrap;html=1;" parent="1" vertex="1">
          <mxGeometry x="190" y="550" width="230" height="60" as="geometry" />
        </mxCell>
        <mxCell id="8z0fcw80SUr7YGMnGmI_-12" value="&lt;font style=&quot;font-size: 9px;&quot;&gt;Capturing device communications interface&lt;/font&gt;" style="text;html=1;strokeColor=none;fillColor=none;align=center;verticalAlign=middle;whiteSpace=wrap;rounded=0;" parent="1" vertex="1">
          <mxGeometry x="220" y="580" width="190" height="30" as="geometry" />
        </mxCell>
        <mxCell id="8z0fcw80SUr7YGMnGmI_-13" value="TCP interface" style="rounded=0;whiteSpace=wrap;html=1;" parent="1" vertex="1">
          <mxGeometry x="215" y="550" width="85" height="30" as="geometry" />
        </mxCell>
        <mxCell id="8z0fcw80SUr7YGMnGmI_-14" value="UDP interface" style="rounded=0;whiteSpace=wrap;html=1;fillColor=#ffe6cc;strokeColor=#d79b00;" parent="1" vertex="1">
          <mxGeometry x="330" y="550" width="90" height="30" as="geometry" />
        </mxCell>
        <mxCell id="8z0fcw80SUr7YGMnGmI_-15" value="" style="rounded=0;whiteSpace=wrap;html=1;" parent="1" vertex="1">
          <mxGeometry x="190" y="350" width="290" height="50" as="geometry" />
        </mxCell>
        <mxCell id="8z0fcw80SUr7YGMnGmI_-16" value="&lt;font style=&quot;font-size: 9px;&quot;&gt;Server communication interface&lt;br&gt;&lt;/font&gt;" style="text;html=1;strokeColor=none;fillColor=none;align=center;verticalAlign=middle;whiteSpace=wrap;rounded=0;" parent="1" vertex="1">
          <mxGeometry x="255" y="350" width="150" height="20" as="geometry" />
        </mxCell>
        <mxCell id="8z0fcw80SUr7YGMnGmI_-18" value="TCP interface" style="rounded=0;whiteSpace=wrap;html=1;" parent="1" vertex="1">
          <mxGeometry x="215" y="370" width="85" height="30" as="geometry" />
        </mxCell>
        <mxCell id="8z0fcw80SUr7YGMnGmI_-19" value="UDP interface" style="rounded=0;whiteSpace=wrap;html=1;fillColor=#ffe6cc;strokeColor=#d79b00;" parent="1" vertex="1">
          <mxGeometry x="330" y="370" width="90" height="30" as="geometry" />
        </mxCell>
        <mxCell id="8z0fcw80SUr7YGMnGmI_-20" value="" style="rounded=0;whiteSpace=wrap;html=1;" parent="1" vertex="1">
          <mxGeometry x="670" y="410" width="360" height="210" as="geometry" />
        </mxCell>
        <mxCell id="8z0fcw80SUr7YGMnGmI_-21" value="&lt;font style=&quot;font-size: 16px;&quot;&gt;On-user-device application&lt;/font&gt;" style="text;html=1;strokeColor=none;fillColor=none;align=center;verticalAlign=middle;whiteSpace=wrap;rounded=0;fontStyle=1" parent="1" vertex="1">
          <mxGeometry x="820" y="440" width="140" height="30" as="geometry" />
        </mxCell>
        <mxCell id="8z0fcw80SUr7YGMnGmI_-25" value="" style="shape=flexArrow;endArrow=classic;html=1;rounded=0;entryX=0.348;entryY=0.025;entryDx=0;entryDy=0;entryPerimeter=0;exitX=0.345;exitY=1.016;exitDx=0;exitDy=0;exitPerimeter=0;" parent="1" source="8z0fcw80SUr7YGMnGmI_-18" target="8z0fcw80SUr7YGMnGmI_-13" edge="1">
          <mxGeometry width="50" height="50" relative="1" as="geometry">
            <mxPoint x="249.31" y="400" as="sourcePoint" />
            <mxPoint x="249.31" y="490" as="targetPoint" />
          </mxGeometry>
        </mxCell>
        <mxCell id="8z0fcw80SUr7YGMnGmI_-26" value="" style="shape=flexArrow;endArrow=classic;html=1;rounded=0;entryX=0.75;entryY=1;entryDx=0;entryDy=0;exitX=0.75;exitY=0;exitDx=0;exitDy=0;" parent="1" source="8z0fcw80SUr7YGMnGmI_-13" target="8z0fcw80SUr7YGMnGmI_-18" edge="1">
          <mxGeometry width="50" height="50" relative="1" as="geometry">
            <mxPoint x="280" y="530" as="sourcePoint" />
            <mxPoint x="280" y="420" as="targetPoint" />
          </mxGeometry>
        </mxCell>
        <mxCell id="8z0fcw80SUr7YGMnGmI_-28" value="Notification center" style="rounded=0;whiteSpace=wrap;html=1;" parent="1" vertex="1">
          <mxGeometry x="425" y="680" width="80" height="60" as="geometry" />
        </mxCell>
        <mxCell id="8z0fcw80SUr7YGMnGmI_-27" value="" style="shape=flexArrow;endArrow=classic;html=1;rounded=0;" parent="1" source="8z0fcw80SUr7YGMnGmI_-19" target="8z0fcw80SUr7YGMnGmI_-14" edge="1">
          <mxGeometry width="50" height="50" relative="1" as="geometry">
            <mxPoint x="420" y="500" as="sourcePoint" />
            <mxPoint x="470" y="450" as="targetPoint" />
          </mxGeometry>
        </mxCell>
        <mxCell id="8z0fcw80SUr7YGMnGmI_-30" value="" style="rounded=0;whiteSpace=wrap;html=1;" parent="1" vertex="1">
          <mxGeometry x="425" y="550" width="85" height="120" as="geometry" />
        </mxCell>
        <mxCell id="8z0fcw80SUr7YGMnGmI_-31" value="&lt;font style=&quot;font-size: 10px;&quot;&gt;User device communication interface&lt;/font&gt;" style="text;html=1;strokeColor=none;fillColor=none;align=center;verticalAlign=middle;whiteSpace=wrap;rounded=0;" parent="1" vertex="1">
          <mxGeometry x="428.75" y="560" width="77.5" height="40" as="geometry" />
        </mxCell>
        <mxCell id="8z0fcw80SUr7YGMnGmI_-32" value="TCP interface" style="rounded=0;whiteSpace=wrap;html=1;" parent="1" vertex="1">
          <mxGeometry x="430" y="605" width="80" height="25" as="geometry" />
        </mxCell>
        <mxCell id="8z0fcw80SUr7YGMnGmI_-33" value="UDP interface" style="rounded=0;whiteSpace=wrap;html=1;fillColor=#ffe6cc;strokeColor=#d79b00;" parent="1" vertex="1">
          <mxGeometry x="430" y="640" width="80" height="25" as="geometry" />
        </mxCell>
        <mxCell id="8z0fcw80SUr7YGMnGmI_-36" value="" style="rounded=0;whiteSpace=wrap;html=1;" parent="1" vertex="1">
          <mxGeometry x="745" y="560" width="275" height="50" as="geometry" />
        </mxCell>
        <mxCell id="8z0fcw80SUr7YGMnGmI_-37" value="&lt;font style=&quot;font-size: 9px;&quot;&gt;Server communication interface&lt;br&gt;&lt;/font&gt;" style="text;html=1;strokeColor=none;fillColor=none;align=center;verticalAlign=middle;whiteSpace=wrap;rounded=0;" parent="1" vertex="1">
          <mxGeometry x="805" y="560" width="150" height="20" as="geometry" />
        </mxCell>
        <mxCell id="8z0fcw80SUr7YGMnGmI_-38" value="TCP interface" style="rounded=0;whiteSpace=wrap;html=1;" parent="1" vertex="1">
          <mxGeometry x="770" y="580" width="85" height="30" as="geometry" />
        </mxCell>
        <mxCell id="8z0fcw80SUr7YGMnGmI_-39" value="UDP interface" style="rounded=0;whiteSpace=wrap;html=1;" parent="1" vertex="1">
          <mxGeometry x="885" y="580" width="90" height="30" as="geometry" />
        </mxCell>
        <mxCell id="8z0fcw80SUr7YGMnGmI_-40" value="Event receiver" style="rounded=0;whiteSpace=wrap;html=1;" parent="1" vertex="1">
          <mxGeometry x="745" y="490" width="85" height="60" as="geometry" />
        </mxCell>
        <mxCell id="8z0fcw80SUr7YGMnGmI_-41" value="User discovery menu" style="rounded=0;whiteSpace=wrap;html=1;" parent="1" vertex="1">
          <mxGeometry x="835" y="490" width="55" height="60" as="geometry" />
        </mxCell>
        <mxCell id="8z0fcw80SUr7YGMnGmI_-42" value="Device discovery menu" style="rounded=0;whiteSpace=wrap;html=1;" parent="1" vertex="1">
          <mxGeometry x="895" y="490" width="60" height="60" as="geometry" />
        </mxCell>
        <mxCell id="8z0fcw80SUr7YGMnGmI_-43" value="User notification" style="rounded=0;whiteSpace=wrap;html=1;" parent="1" vertex="1">
          <mxGeometry x="730" y="300" width="120" height="60" as="geometry" />
        </mxCell>
        <mxCell id="8z0fcw80SUr7YGMnGmI_-44" value="" style="shape=flexArrow;endArrow=classic;html=1;rounded=0;entryX=0.461;entryY=1.013;entryDx=0;entryDy=0;entryPerimeter=0;" parent="1" source="8z0fcw80SUr7YGMnGmI_-40" target="8z0fcw80SUr7YGMnGmI_-43" edge="1">
          <mxGeometry width="50" height="50" relative="1" as="geometry">
            <mxPoint x="780" y="490" as="sourcePoint" />
            <mxPoint x="790" y="400" as="targetPoint" />
          </mxGeometry>
        </mxCell>
        <mxCell id="8z0fcw80SUr7YGMnGmI_-46" value="" style="shape=flexArrow;endArrow=classic;html=1;rounded=0;exitX=1;exitY=0.5;exitDx=0;exitDy=0;" parent="1" source="8z0fcw80SUr7YGMnGmI_-33" edge="1">
          <mxGeometry width="50" height="50" relative="1" as="geometry">
            <mxPoint x="560" y="670" as="sourcePoint" />
            <mxPoint x="910" y="610" as="targetPoint" />
            <Array as="points">
              <mxPoint x="630" y="670" />
              <mxPoint x="920" y="730" />
            </Array>
          </mxGeometry>
        </mxCell>
        <mxCell id="8z0fcw80SUr7YGMnGmI_-47" value="" style="shape=flexArrow;endArrow=classic;html=1;rounded=0;entryX=0;entryY=0.5;entryDx=0;entryDy=0;exitX=1;exitY=0.25;exitDx=0;exitDy=0;" parent="1" source="8z0fcw80SUr7YGMnGmI_-32" target="8z0fcw80SUr7YGMnGmI_-38" edge="1">
          <mxGeometry width="50" height="50" relative="1" as="geometry">
            <mxPoint x="470" y="530" as="sourcePoint" />
            <mxPoint x="520" y="480" as="targetPoint" />
            <Array as="points">
              <mxPoint x="600" y="595" />
            </Array>
          </mxGeometry>
        </mxCell>
        <mxCell id="8z0fcw80SUr7YGMnGmI_-48" value="" style="shape=flexArrow;endArrow=classic;html=1;rounded=0;exitX=0.353;exitY=1;exitDx=0;exitDy=0;exitPerimeter=0;entryX=1;entryY=1;entryDx=0;entryDy=0;" parent="1" source="8z0fcw80SUr7YGMnGmI_-38" target="8z0fcw80SUr7YGMnGmI_-32" edge="1">
          <mxGeometry width="50" height="50" relative="1" as="geometry">
            <mxPoint x="470" y="530" as="sourcePoint" />
            <mxPoint x="520" y="480" as="targetPoint" />
            <Array as="points">
              <mxPoint x="800" y="670" />
            </Array>
          </mxGeometry>
        </mxCell>
        <mxCell id="8z0fcw80SUr7YGMnGmI_-53" value="Config menu" style="rounded=0;whiteSpace=wrap;html=1;" parent="1" vertex="1">
          <mxGeometry x="960" y="490" width="60" height="60" as="geometry" />
        </mxCell>
        <mxCell id="8z0fcw80SUr7YGMnGmI_-54" value="Stream capturer" style="rounded=0;whiteSpace=wrap;html=1;fillColor=#ffe6cc;strokeColor=#d79b00;" parent="1" vertex="1">
          <mxGeometry x="385" y="280" width="95" height="60" as="geometry" />
        </mxCell>
        <mxCell id="8z0fcw80SUr7YGMnGmI_-55" value="Storage" style="rounded=0;whiteSpace=wrap;html=1;" parent="1" vertex="1">
          <mxGeometry x="170" y="615" width="90" height="60" as="geometry" />
        </mxCell>
        <mxCell id="Nf6fq1ZOLMNAQtsEaLeK-1" value="" style="rounded=0;whiteSpace=wrap;html=1;" vertex="1" parent="1">
          <mxGeometry x="670" y="420" width="60" height="150" as="geometry" />
        </mxCell>
        <mxCell id="Nf6fq1ZOLMNAQtsEaLeK-2" value="Camera setup interface" style="text;html=1;align=center;verticalAlign=middle;whiteSpace=wrap;rounded=0;fontSize=16;rotation=270;" vertex="1" parent="1">
          <mxGeometry x="610" y="500" width="160" height="30" as="geometry" />
        </mxCell>
        <mxCell id="Nf6fq1ZOLMNAQtsEaLeK-3" value="BLE interface" style="rounded=0;whiteSpace=wrap;html=1;" vertex="1" parent="1">
          <mxGeometry x="675" y="430" width="50" height="30" as="geometry" />
        </mxCell>
        <mxCell id="Nf6fq1ZOLMNAQtsEaLeK-4" value="" style="rounded=0;whiteSpace=wrap;html=1;" vertex="1" parent="1">
          <mxGeometry x="315" y="240" width="165" height="35" as="geometry" />
        </mxCell>
        <mxCell id="Nf6fq1ZOLMNAQtsEaLeK-6" value="Client setup interface" style="text;html=1;align=center;verticalAlign=middle;whiteSpace=wrap;rounded=0;fontSize=10;" vertex="1" parent="1">
          <mxGeometry x="320" y="231.25" width="98.75" height="52.5" as="geometry" />
        </mxCell>
        <mxCell id="Nf6fq1ZOLMNAQtsEaLeK-7" value="BLE interface" style="rounded=0;whiteSpace=wrap;html=1;fontSize=8;" vertex="1" parent="1">
          <mxGeometry x="419.75" y="247" width="51.25" height="22.5" as="geometry" />
        </mxCell>
        <mxCell id="Nf6fq1ZOLMNAQtsEaLeK-8" value="" style="shape=flexArrow;endArrow=classic;html=1;rounded=0;fontSize=12;startSize=8;endSize=8;entryX=1;entryY=0.5;entryDx=0;entryDy=0;exitX=0;exitY=0.25;exitDx=0;exitDy=0;" edge="1" parent="1" source="Nf6fq1ZOLMNAQtsEaLeK-3" target="Nf6fq1ZOLMNAQtsEaLeK-4">
          <mxGeometry width="50" height="50" relative="1" as="geometry">
            <mxPoint x="670" y="510" as="sourcePoint" />
            <mxPoint x="580" y="310" as="targetPoint" />
          </mxGeometry>
        </mxCell>
      </root>
    </mxGraphModel>
  </diagram>
</mxfile>
